<svg width="176" height="48" viewBox="0 0 176 48" fill="none" xmlns="http://www.w3.org/2000/svg">
<g clip-path="url(#clip0_26_1569)">
<path d="M37.402 21V14.034H39.735L40.084 11.326H37.402V9.598C37.402 8.814 37.62 8.279 38.744 8.279H40.178V5.857C39.4838 5.78334 38.7861 5.74762 38.088 5.75C36.021 5.75 34.606 7.012 34.606 9.33V11.326H32.268V14.034H34.606V21H26C25.7348 21 25.4804 20.8946 25.2929 20.7071C25.1054 20.5196 25 20.2652 25 20V4C25 3.73478 25.1054 3.48043 25.2929 3.29289C25.4804 3.10536 25.7348 3 26 3H42C42.2652 3 42.5196 3.10536 42.7071 3.29289C42.8946 3.48043 43 3.73478 43 4V20C43 20.2652 42.8946 20.5196 42.7071 20.7071C42.5196 20.8946 42.2652 21 42 21H37.402Z" fill="#2C2D35"/>
</g>
<g clip-path="url(#clip1_26_1569)">
<path d="M88 2C90.717 2 91.056 2.01 92.122 2.06C93.187 2.11 93.912 2.277 94.55 2.525C95.21 2.779 95.766 3.123 96.322 3.678C96.8305 4.1779 97.224 4.78259 97.475 5.45C97.722 6.087 97.89 6.813 97.94 7.878C97.987 8.944 98 9.283 98 12C98 14.717 97.99 15.056 97.94 16.122C97.89 17.187 97.722 17.912 97.475 18.55C97.2247 19.2178 96.8311 19.8226 96.322 20.322C95.822 20.8303 95.2173 21.2238 94.55 21.475C93.913 21.722 93.187 21.89 92.122 21.94C91.056 21.987 90.717 22 88 22C85.283 22 84.944 21.99 83.878 21.94C82.813 21.89 82.088 21.722 81.45 21.475C80.7823 21.2245 80.1775 20.8309 79.678 20.322C79.1694 19.8222 78.7759 19.2175 78.525 18.55C78.277 17.913 78.11 17.187 78.06 16.122C78.013 15.056 78 14.717 78 12C78 9.283 78.01 8.944 78.06 7.878C78.11 6.812 78.277 6.088 78.525 5.45C78.7752 4.78218 79.1688 4.17732 79.678 3.678C80.1777 3.16923 80.7824 2.77573 81.45 2.525C82.088 2.277 82.812 2.11 83.878 2.06C84.944 2.013 85.283 2 88 2ZM88 7C86.6739 7 85.4021 7.52678 84.4645 8.46447C83.5268 9.40215 83 10.6739 83 12C83 13.3261 83.5268 14.5979 84.4645 15.5355C85.4021 16.4732 86.6739 17 88 17C89.3261 17 90.5979 16.4732 91.5355 15.5355C92.4732 14.5979 93 13.3261 93 12C93 10.6739 92.4732 9.40215 91.5355 8.46447C90.5979 7.52678 89.3261 7 88 7ZM94.5 6.75C94.5 6.41848 94.3683 6.10054 94.1339 5.86612C93.8995 5.6317 93.5815 5.5 93.25 5.5C92.9185 5.5 92.6005 5.6317 92.3661 5.86612C92.1317 6.10054 92 6.41848 92 6.75C92 7.08152 92.1317 7.39946 92.3661 7.63388C92.6005 7.8683 92.9185 8 93.25 8C93.5815 8 93.8995 7.8683 94.1339 7.63388C94.3683 7.39946 94.5 7.08152 94.5 6.75ZM88 9C88.7956 9 89.5587 9.31607 90.1213 9.87868C90.6839 10.4413 91 11.2044 91 12C91 12.7956 90.6839 13.5587 90.1213 14.1213C89.5587 14.6839 88.7956 15 88 15C87.2044 15 86.4413 14.6839 85.8787 14.1213C85.3161 13.5587 85 12.7956 85 12C85 11.2044 85.3161 10.4413 85.8787 9.87868C86.4413 9.31607 87.2044 9 88 9Z" fill="#2C2D35"/>
</g>
<g clip-path="url(#clip2_26_1569)">
<path d="M151.543 6.498C152 8.28 152 12 152 12C152 12 152 15.72 151.543 17.502C151.289 18.487 150.546 19.262 149.605 19.524C147.896 20 142 20 142 20C142 20 136.107 20 134.395 19.524C133.45 19.258 132.708 18.484 132.457 17.502C132 15.72 132 12 132 12C132 12 132 8.28 132.457 6.498C132.711 5.513 133.454 4.738 134.395 4.476C136.107 4 142 4 142 4C142 4 147.896 4 149.605 4.476C150.55 4.742 151.292 5.516 151.543 6.498ZM140 15.5L146 12L140 8.5V15.5Z" fill="#2C2D35"/>
</g>
<path d="M1.02 45V36.48H2.1V45H1.02ZM9.40519 45H8.34919V41.496C8.34919 40.832 8.24519 40.348 8.03719 40.044C7.83719 39.732 7.52919 39.576 7.11319 39.576C6.82519 39.576 6.53719 39.648 6.24919 39.792C5.96919 39.936 5.71719 40.132 5.49319 40.38C5.27719 40.62 5.12119 40.9 5.02519 41.22V45H3.96919V38.736H4.92919V40.08C5.17719 39.64 5.53319 39.288 5.99719 39.024C6.46919 38.76 6.98119 38.628 7.53319 38.628C8.02119 38.628 8.39719 38.744 8.66119 38.976C8.93319 39.2 9.12519 39.512 9.23719 39.912C9.34919 40.304 9.40519 40.752 9.40519 41.256V45ZM15.4633 45L13.2913 41.952L12.1033 43.068V45H11.0473V36.24H12.1033V41.964L15.3433 38.748H16.4833L13.9873 41.34L16.6033 45H15.4633ZM17.4321 45V43.656H18.3201V45H17.4321ZM29.997 36.48V45H28.917V41.124H24.225V45H23.145V36.48H24.225V40.164H28.917V36.48H29.997ZM34.5021 45.12C33.8781 45.12 33.3261 44.972 32.8461 44.676C32.3741 44.372 32.0061 43.976 31.7421 43.488C31.4781 42.992 31.3461 42.456 31.3461 41.88C31.3461 41.296 31.4781 40.76 31.7421 40.272C32.0141 39.776 32.3861 39.38 32.8581 39.084C33.3381 38.78 33.8861 38.628 34.5021 38.628C35.1261 38.628 35.6741 38.78 36.1461 39.084C36.6261 39.38 36.9981 39.776 37.2621 40.272C37.5341 40.76 37.6701 41.296 37.6701 41.88C37.6701 42.456 37.5341 42.992 37.2621 43.488C36.9981 43.976 36.6301 44.372 36.1581 44.676C35.6861 44.972 35.1341 45.12 34.5021 45.12ZM32.4261 41.892C32.4261 42.324 32.5181 42.716 32.7021 43.068C32.8941 43.42 33.1461 43.7 33.4581 43.908C33.7701 44.108 34.1181 44.208 34.5021 44.208C34.8861 44.208 35.2341 44.104 35.5461 43.896C35.8661 43.688 36.1181 43.408 36.3021 43.056C36.4941 42.696 36.5901 42.3 36.5901 41.868C36.5901 41.436 36.4941 41.044 36.3021 40.692C36.1181 40.34 35.8661 40.06 35.5461 39.852C35.2341 39.644 34.8861 39.54 34.5021 39.54C34.1181 39.54 33.7701 39.648 33.4581 39.864C33.1461 40.072 32.8941 40.352 32.7021 40.704C32.5181 41.056 32.4261 41.452 32.4261 41.892ZM38.8897 42.492V38.736H39.9457V42.288C39.9457 43.568 40.3897 44.208 41.2777 44.208C41.7097 44.208 42.1137 44.072 42.4897 43.8C42.8737 43.52 43.1577 43.14 43.3417 42.66V38.736H44.3977V43.8C44.3977 44.048 44.5097 44.176 44.7337 44.184V45C44.6137 45.016 44.5177 45.024 44.4457 45.024C44.3817 45.032 44.3177 45.036 44.2537 45.036C44.0537 45.036 43.8817 44.976 43.7377 44.856C43.5937 44.728 43.5177 44.572 43.5097 44.388L43.4857 43.656C43.2137 44.12 42.8457 44.48 42.3817 44.736C41.9257 44.992 41.4257 45.12 40.8817 45.12C39.5537 45.12 38.8897 44.244 38.8897 42.492ZM48.3047 45.12C47.7847 45.12 47.2967 45.036 46.8407 44.868C46.3847 44.692 45.9927 44.432 45.6647 44.088L46.0727 43.344C46.4327 43.68 46.7927 43.92 47.1527 44.064C47.5127 44.208 47.8807 44.28 48.2567 44.28C48.6887 44.28 49.0407 44.2 49.3127 44.04C49.5847 43.872 49.7207 43.628 49.7207 43.308C49.7207 43.076 49.6487 42.904 49.5047 42.792C49.3687 42.68 49.1727 42.588 48.9167 42.516C48.6607 42.436 48.3567 42.348 48.0047 42.252C47.3567 42.068 46.8607 41.852 46.5167 41.604C46.1807 41.348 46.0127 40.976 46.0127 40.488C46.0127 39.896 46.2367 39.44 46.6847 39.12C47.1407 38.792 47.7207 38.628 48.4247 38.628C49.3687 38.628 50.1127 38.912 50.6567 39.48L50.1767 40.212C49.6887 39.708 49.0847 39.456 48.3647 39.456C48.1487 39.456 47.9367 39.484 47.7287 39.54C47.5207 39.588 47.3487 39.68 47.2127 39.816C47.0767 39.944 47.0087 40.128 47.0087 40.368C47.0087 40.664 47.1287 40.876 47.3687 41.004C47.6087 41.132 47.9607 41.264 48.4247 41.4C48.8967 41.536 49.3047 41.672 49.6487 41.808C50.0007 41.944 50.2727 42.12 50.4647 42.336C50.6567 42.552 50.7527 42.852 50.7527 43.236C50.7527 43.828 50.5287 44.292 50.0807 44.628C49.6327 44.956 49.0407 45.12 48.3047 45.12ZM54.7881 45.12C54.1641 45.12 53.6121 44.972 53.1321 44.676C52.6521 44.38 52.2761 43.984 52.0041 43.488C51.7321 42.992 51.5961 42.452 51.5961 41.868C51.5961 41.276 51.7321 40.736 52.0041 40.248C52.2761 39.76 52.6521 39.368 53.1321 39.072C53.6201 38.776 54.1761 38.628 54.8001 38.628C55.4321 38.628 55.9801 38.78 56.4441 39.084C56.9161 39.38 57.2801 39.772 57.5361 40.26C57.8001 40.74 57.9321 41.26 57.9321 41.82C57.9321 41.996 57.9241 42.132 57.9081 42.228H52.7121C52.7441 42.636 52.8561 43 53.0481 43.32C53.2481 43.632 53.5041 43.88 53.8161 44.064C54.1281 44.24 54.4641 44.328 54.8241 44.328C55.2081 44.328 55.5681 44.232 55.9041 44.04C56.2481 43.848 56.4841 43.596 56.6121 43.284L57.5241 43.536C57.3241 44 56.9761 44.38 56.4801 44.676C55.9841 44.972 55.4201 45.12 54.7881 45.12ZM52.6761 41.496H56.9481C56.9161 41.088 56.8001 40.728 56.6001 40.416C56.4001 40.104 56.1441 39.86 55.8321 39.684C55.5201 39.508 55.1761 39.42 54.8001 39.42C54.4321 39.42 54.0921 39.508 53.7801 39.684C53.4681 39.86 53.2121 40.104 53.0121 40.416C52.8201 40.728 52.7081 41.088 52.6761 41.496ZM66.2931 45.084C65.6531 45.084 65.0611 44.976 64.5171 44.76C63.9811 44.544 63.5131 44.24 63.1131 43.848C62.7131 43.456 62.4011 42.996 62.1771 42.468C61.9611 41.94 61.8531 41.364 61.8531 40.74C61.8531 40.124 61.9611 39.552 62.1771 39.024C62.4011 38.496 62.7131 38.04 63.1131 37.656C63.5131 37.264 63.9811 36.96 64.5171 36.744C65.0611 36.528 65.6531 36.42 66.2931 36.42C66.9331 36.42 67.5251 36.528 68.0691 36.744C68.6131 36.96 69.0851 37.264 69.4851 37.656C69.8851 38.04 70.1971 38.496 70.4211 39.024C70.6451 39.552 70.7571 40.124 70.7571 40.74C70.7571 41.364 70.6451 41.94 70.4211 42.468C70.1971 42.996 69.8851 43.456 69.4851 43.848C69.0851 44.24 68.6131 44.544 68.0691 44.76C67.5251 44.976 66.9331 45.084 66.2931 45.084ZM66.2931 44.568C67.0211 44.568 67.6771 44.408 68.2611 44.088C68.8531 43.76 69.3211 43.312 69.6651 42.744C70.0091 42.168 70.1811 41.504 70.1811 40.752C70.1811 40.216 70.0851 39.72 69.8931 39.264C69.7011 38.8 69.4291 38.396 69.0771 38.052C68.7251 37.7 68.3131 37.428 67.8411 37.236C67.3691 37.044 66.8531 36.948 66.2931 36.948C65.7331 36.948 65.2171 37.044 64.7451 37.236C64.2811 37.428 63.8731 37.696 63.5211 38.04C63.1771 38.384 62.9091 38.788 62.7171 39.252C62.5251 39.708 62.4291 40.204 62.4291 40.74C62.4291 41.276 62.5251 41.78 62.7171 42.252C62.9091 42.716 63.1771 43.12 63.5211 43.464C63.8731 43.808 64.2811 44.08 64.7451 44.28C65.2171 44.472 65.7331 44.568 66.2931 44.568ZM64.4331 38.052H66.7371C67.0571 38.052 67.3371 38.14 67.5771 38.316C67.8251 38.484 68.0171 38.7 68.1531 38.964C68.2971 39.228 68.3691 39.5 68.3691 39.78C68.3691 40.148 68.2611 40.484 68.0451 40.788C67.8371 41.092 67.5611 41.288 67.2171 41.376L68.5251 43.44H67.6491L66.4251 41.496H65.2131V43.44H64.4331V38.052ZM66.7011 40.812C66.9891 40.812 67.2091 40.716 67.3611 40.524C67.5211 40.324 67.6011 40.076 67.6011 39.78C67.6011 39.476 67.5091 39.232 67.3251 39.048C67.1491 38.856 66.9291 38.76 66.6651 38.76H65.2131V40.812H66.7011ZM77.5925 36.48H78.5045L81.9845 45H80.8325L79.8245 42.504H76.2485L75.2525 45H74.1005L77.5925 36.48ZM79.5845 41.664L78.0485 37.728L76.4645 41.664H79.5845ZM82.9776 36.24H84.0336V43.38C84.0336 43.724 84.0816 43.936 84.1776 44.016C84.2736 44.096 84.3896 44.136 84.5256 44.136C84.6936 44.136 84.8536 44.12 85.0056 44.088C85.1576 44.048 85.2856 44.008 85.3896 43.968L85.5576 44.832C85.3816 44.904 85.1736 44.964 84.9336 45.012C84.6936 45.06 84.4816 45.084 84.2976 45.084C83.8896 45.084 83.5656 44.968 83.3256 44.736C83.0936 44.504 82.9776 44.18 82.9776 43.764V36.24ZM86.4112 36.24H87.4672V43.38C87.4672 43.724 87.5152 43.936 87.6112 44.016C87.7072 44.096 87.8232 44.136 87.9592 44.136C88.1272 44.136 88.2872 44.12 88.4392 44.088C88.5912 44.048 88.7192 44.008 88.8232 43.968L88.9912 44.832C88.8152 44.904 88.6072 44.964 88.3672 45.012C88.1272 45.06 87.9152 45.084 87.7312 45.084C87.3232 45.084 86.9992 44.968 86.7592 44.736C86.5272 44.504 86.4112 44.18 86.4112 43.764V36.24ZM95.8046 39.66C95.2766 39.668 94.8086 39.804 94.4006 40.068C94.0006 40.324 93.7166 40.68 93.5486 41.136V45H92.4926V38.736H93.4766V40.188C93.6926 39.756 93.9766 39.408 94.3286 39.144C94.6886 38.872 95.0646 38.72 95.4566 38.688C95.5366 38.688 95.6046 38.688 95.6606 38.688C95.7166 38.688 95.7646 38.692 95.8046 38.7V39.66ZM96.852 37.56V36.24H97.908V37.56H96.852ZM96.852 45V38.736H97.908V45H96.852ZM102.114 45.072C101.546 45.072 101.042 44.924 100.602 44.628C100.17 44.324 99.8296 43.928 99.5816 43.44C99.3416 42.952 99.2216 42.432 99.2216 41.88C99.2216 41.288 99.3416 40.748 99.5816 40.26C99.8296 39.764 100.174 39.368 100.614 39.072C101.054 38.776 101.558 38.628 102.126 38.628C102.646 38.628 103.098 38.756 103.482 39.012C103.874 39.268 104.202 39.592 104.466 39.984V38.736H105.402V44.928C105.402 45.52 105.258 46.02 104.97 46.428C104.69 46.836 104.306 47.144 103.818 47.352C103.338 47.568 102.802 47.676 102.21 47.676C101.506 47.676 100.93 47.552 100.482 47.304C100.034 47.056 99.6616 46.72 99.3656 46.296L99.9776 45.756C100.226 46.124 100.546 46.4 100.938 46.584C101.338 46.768 101.762 46.86 102.21 46.86C102.594 46.86 102.946 46.788 103.266 46.644C103.594 46.508 103.854 46.296 104.046 46.008C104.246 45.72 104.346 45.36 104.346 44.928V43.824C104.114 44.208 103.794 44.512 103.386 44.736C102.986 44.96 102.562 45.072 102.114 45.072ZM102.438 44.208C102.734 44.208 103.018 44.14 103.29 44.004C103.562 43.868 103.79 43.692 103.974 43.476C104.166 43.26 104.29 43.036 104.346 42.804V41.004C104.178 40.58 103.906 40.232 103.53 39.96C103.154 39.68 102.758 39.54 102.342 39.54C101.918 39.54 101.55 39.656 101.238 39.888C100.934 40.12 100.698 40.416 100.53 40.776C100.37 41.136 100.29 41.512 100.29 41.904C100.29 42.32 100.386 42.704 100.578 43.056C100.77 43.4 101.026 43.68 101.346 43.896C101.674 44.104 102.038 44.208 102.438 44.208ZM112.542 45H111.486V41.496C111.486 40.856 111.37 40.376 111.138 40.056C110.914 39.736 110.59 39.576 110.166 39.576C109.894 39.576 109.618 39.648 109.338 39.792C109.066 39.936 108.826 40.132 108.618 40.38C108.41 40.62 108.258 40.9 108.162 41.22V45H107.106V36.24H108.162V40.08C108.41 39.632 108.746 39.28 109.17 39.024C109.602 38.76 110.066 38.628 110.562 38.628C111.058 38.628 111.45 38.744 111.738 38.976C112.026 39.208 112.23 39.524 112.35 39.924C112.478 40.316 112.542 40.76 112.542 41.256V45ZM117.365 44.688C117.237 44.744 117.033 44.824 116.753 44.928C116.481 45.032 116.177 45.084 115.841 45.084C115.457 45.084 115.125 44.98 114.845 44.772C114.565 44.556 114.425 44.224 114.425 43.776V39.564H113.573V38.736H114.425V36.648H115.481V38.736H116.885V39.564H115.481V43.452C115.497 43.676 115.573 43.844 115.709 43.956C115.845 44.06 116.005 44.112 116.189 44.112C116.397 44.112 116.589 44.076 116.765 44.004C116.941 43.932 117.057 43.88 117.113 43.848L117.365 44.688ZM120.492 45.12C119.972 45.12 119.484 45.036 119.028 44.868C118.572 44.692 118.18 44.432 117.852 44.088L118.26 43.344C118.62 43.68 118.98 43.92 119.34 44.064C119.7 44.208 120.068 44.28 120.444 44.28C120.876 44.28 121.228 44.2 121.5 44.04C121.772 43.872 121.908 43.628 121.908 43.308C121.908 43.076 121.836 42.904 121.692 42.792C121.556 42.68 121.36 42.588 121.104 42.516C120.848 42.436 120.544 42.348 120.192 42.252C119.544 42.068 119.048 41.852 118.704 41.604C118.368 41.348 118.2 40.976 118.2 40.488C118.2 39.896 118.424 39.44 118.872 39.12C119.328 38.792 119.908 38.628 120.612 38.628C121.556 38.628 122.3 38.912 122.844 39.48L122.364 40.212C121.876 39.708 121.272 39.456 120.552 39.456C120.336 39.456 120.124 39.484 119.916 39.54C119.708 39.588 119.536 39.68 119.4 39.816C119.264 39.944 119.196 40.128 119.196 40.368C119.196 40.664 119.316 40.876 119.556 41.004C119.796 41.132 120.148 41.264 120.612 41.4C121.084 41.536 121.492 41.672 121.836 41.808C122.188 41.944 122.46 42.12 122.652 42.336C122.844 42.552 122.94 42.852 122.94 43.236C122.94 43.828 122.716 44.292 122.268 44.628C121.82 44.956 121.228 45.12 120.492 45.12ZM130.551 39.66C130.023 39.668 129.555 39.804 129.147 40.068C128.747 40.324 128.463 40.68 128.295 41.136V45H127.239V38.736H128.223V40.188C128.439 39.756 128.723 39.408 129.075 39.144C129.435 38.872 129.811 38.72 130.203 38.688C130.283 38.688 130.351 38.688 130.407 38.688C130.463 38.688 130.511 38.692 130.551 38.7V39.66ZM134.229 45.12C133.605 45.12 133.053 44.972 132.573 44.676C132.093 44.38 131.717 43.984 131.445 43.488C131.173 42.992 131.037 42.452 131.037 41.868C131.037 41.276 131.173 40.736 131.445 40.248C131.717 39.76 132.093 39.368 132.573 39.072C133.061 38.776 133.617 38.628 134.241 38.628C134.873 38.628 135.421 38.78 135.885 39.084C136.357 39.38 136.721 39.772 136.977 40.26C137.241 40.74 137.373 41.26 137.373 41.82C137.373 41.996 137.365 42.132 137.349 42.228H132.153C132.185 42.636 132.297 43 132.489 43.32C132.689 43.632 132.945 43.88 133.257 44.064C133.569 44.24 133.905 44.328 134.265 44.328C134.649 44.328 135.009 44.232 135.345 44.04C135.689 43.848 135.925 43.596 136.053 43.284L136.965 43.536C136.765 44 136.417 44.38 135.921 44.676C135.425 44.972 134.861 45.12 134.229 45.12ZM132.117 41.496H136.389C136.357 41.088 136.241 40.728 136.041 40.416C135.841 40.104 135.585 39.86 135.273 39.684C134.961 39.508 134.617 39.42 134.241 39.42C133.873 39.42 133.533 39.508 133.221 39.684C132.909 39.86 132.653 40.104 132.453 40.416C132.261 40.728 132.149 41.088 132.117 41.496ZM140.695 45.12C140.175 45.12 139.687 45.036 139.231 44.868C138.775 44.692 138.383 44.432 138.055 44.088L138.463 43.344C138.823 43.68 139.183 43.92 139.543 44.064C139.903 44.208 140.271 44.28 140.647 44.28C141.079 44.28 141.431 44.2 141.703 44.04C141.975 43.872 142.111 43.628 142.111 43.308C142.111 43.076 142.039 42.904 141.895 42.792C141.759 42.68 141.563 42.588 141.307 42.516C141.051 42.436 140.747 42.348 140.395 42.252C139.747 42.068 139.251 41.852 138.907 41.604C138.571 41.348 138.403 40.976 138.403 40.488C138.403 39.896 138.627 39.44 139.075 39.12C139.531 38.792 140.111 38.628 140.815 38.628C141.759 38.628 142.503 38.912 143.047 39.48L142.567 40.212C142.079 39.708 141.475 39.456 140.755 39.456C140.539 39.456 140.327 39.484 140.119 39.54C139.911 39.588 139.739 39.68 139.603 39.816C139.467 39.944 139.399 40.128 139.399 40.368C139.399 40.664 139.519 40.876 139.759 41.004C139.999 41.132 140.351 41.264 140.815 41.4C141.287 41.536 141.695 41.672 142.039 41.808C142.391 41.944 142.663 42.12 142.855 42.336C143.047 42.552 143.143 42.852 143.143 43.236C143.143 43.828 142.919 44.292 142.471 44.628C142.023 44.956 141.431 45.12 140.695 45.12ZM147.179 45.12C146.555 45.12 146.003 44.972 145.523 44.676C145.043 44.38 144.667 43.984 144.395 43.488C144.123 42.992 143.987 42.452 143.987 41.868C143.987 41.276 144.123 40.736 144.395 40.248C144.667 39.76 145.043 39.368 145.523 39.072C146.011 38.776 146.567 38.628 147.191 38.628C147.823 38.628 148.371 38.78 148.835 39.084C149.307 39.38 149.671 39.772 149.927 40.26C150.191 40.74 150.323 41.26 150.323 41.82C150.323 41.996 150.315 42.132 150.299 42.228H145.103C145.135 42.636 145.247 43 145.439 43.32C145.639 43.632 145.895 43.88 146.207 44.064C146.519 44.24 146.855 44.328 147.215 44.328C147.599 44.328 147.959 44.232 148.295 44.04C148.639 43.848 148.875 43.596 149.003 43.284L149.915 43.536C149.715 44 149.367 44.38 148.871 44.676C148.375 44.972 147.811 45.12 147.179 45.12ZM145.067 41.496H149.339C149.307 41.088 149.191 40.728 148.991 40.416C148.791 40.104 148.535 39.86 148.223 39.684C147.911 39.508 147.567 39.42 147.191 39.42C146.823 39.42 146.483 39.508 146.171 39.684C145.859 39.86 145.603 40.104 145.403 40.416C145.211 40.728 145.099 41.088 145.067 41.496ZM154.809 39.66C154.281 39.668 153.813 39.804 153.405 40.068C153.005 40.324 152.721 40.68 152.553 41.136V45H151.497V38.736H152.481V40.188C152.697 39.756 152.981 39.408 153.333 39.144C153.693 38.872 154.069 38.72 154.461 38.688C154.541 38.688 154.609 38.688 154.665 38.688C154.721 38.688 154.769 38.692 154.809 38.7V39.66ZM157.656 45L155.196 38.736H156.3L158.268 43.992L160.236 38.736H161.268L158.808 45H157.656ZM164.886 45.12C164.262 45.12 163.71 44.972 163.23 44.676C162.75 44.38 162.374 43.984 162.102 43.488C161.83 42.992 161.694 42.452 161.694 41.868C161.694 41.276 161.83 40.736 162.102 40.248C162.374 39.76 162.75 39.368 163.23 39.072C163.718 38.776 164.274 38.628 164.898 38.628C165.53 38.628 166.078 38.78 166.542 39.084C167.014 39.38 167.378 39.772 167.634 40.26C167.898 40.74 168.03 41.26 168.03 41.82C168.03 41.996 168.022 42.132 168.006 42.228H162.81C162.842 42.636 162.954 43 163.146 43.32C163.346 43.632 163.602 43.88 163.914 44.064C164.226 44.24 164.562 44.328 164.922 44.328C165.306 44.328 165.666 44.232 166.002 44.04C166.346 43.848 166.582 43.596 166.71 43.284L167.622 43.536C167.422 44 167.074 44.38 166.578 44.676C166.082 44.972 165.518 45.12 164.886 45.12ZM162.774 41.496H167.046C167.014 41.088 166.898 40.728 166.698 40.416C166.498 40.104 166.242 39.86 165.93 39.684C165.618 39.508 165.274 39.42 164.898 39.42C164.53 39.42 164.19 39.508 163.878 39.684C163.566 39.86 163.31 40.104 163.11 40.416C162.918 40.728 162.806 41.088 162.774 41.496ZM168.796 41.88C168.796 41.288 168.916 40.748 169.156 40.26C169.404 39.764 169.74 39.368 170.164 39.072C170.596 38.776 171.088 38.628 171.64 38.628C172.144 38.628 172.596 38.76 172.996 39.024C173.396 39.288 173.708 39.608 173.932 39.984V36.24H174.988V43.8C174.988 44.048 175.1 44.176 175.324 44.184V45C175.124 45.032 174.968 45.048 174.856 45.048C174.648 45.048 174.464 44.976 174.304 44.832C174.152 44.688 174.076 44.528 174.076 44.352V43.824C173.828 44.224 173.496 44.54 173.08 44.772C172.664 45.004 172.232 45.12 171.784 45.12C171.208 45.12 170.692 44.972 170.236 44.676C169.788 44.372 169.436 43.976 169.18 43.488C168.924 42.992 168.796 42.456 168.796 41.88ZM173.932 42.804V41.004C173.836 40.732 173.68 40.488 173.464 40.272C173.248 40.048 173.004 39.872 172.732 39.744C172.468 39.608 172.204 39.54 171.94 39.54C171.532 39.54 171.172 39.652 170.86 39.876C170.556 40.1 170.316 40.392 170.14 40.752C169.972 41.112 169.888 41.492 169.888 41.892C169.888 42.308 169.98 42.692 170.164 43.044C170.356 43.396 170.616 43.68 170.944 43.896C171.272 44.104 171.636 44.208 172.036 44.208C172.292 44.208 172.556 44.148 172.828 44.028C173.1 43.9 173.34 43.728 173.548 43.512C173.756 43.296 173.884 43.06 173.932 42.804Z" fill="#86928B"/>
<defs>
<clipPath id="clip0_26_1569">
<rect width="24" height="24" fill="white" transform="translate(22)"/>
</clipPath>
<clipPath id="clip1_26_1569">
<rect width="24" height="24" fill="white" transform="translate(76)"/>
</clipPath>
<clipPath id="clip2_26_1569">
<rect width="24" height="24" fill="white" transform="translate(130)"/>
</clipPath>
</defs>
</svg>
