<svg width="290" height="35" viewBox="0 0 290 35" fill="none" xmlns="http://www.w3.org/2000/svg">
<path d="M91 0L93.4652 9.10444L100.461 2.77806L97.6128 11.77L106.919 10.2302L99.6609 16.2547L108.322 19.9905L98.9593 21.1349L104.226 28.9601L95.7306 24.861L95.9303 34.2911L91 26.25L86.0697 34.2911L86.2694 24.861L77.7744 28.9601L83.0407 21.1349L73.6781 19.9905L82.3391 16.2547L75.0814 10.2302L84.3872 11.77L81.5388 2.77806L88.5348 9.10444L91 0Z" fill="#598D66"/>
<path d="M117.98 25V10.8H120.74V25H117.98ZM133.183 25H130.503V19.12C130.503 18.28 130.356 17.6667 130.063 17.28C129.769 16.8933 129.363 16.7 128.843 16.7C128.483 16.7 128.116 16.7933 127.743 16.98C127.383 17.1667 127.056 17.4267 126.763 17.76C126.469 18.08 126.256 18.4533 126.123 18.88V25H123.443V14.52H125.863V16.46C126.249 15.8067 126.809 15.2933 127.543 14.92C128.276 14.5333 129.103 14.34 130.023 14.34C130.676 14.34 131.209 14.46 131.623 14.7C132.036 14.9267 132.356 15.24 132.583 15.64C132.809 16.0267 132.963 16.4667 133.043 16.96C133.136 17.4533 133.183 17.9533 133.183 18.46V25ZM142.673 25L139.613 20.48L138.193 21.88V25H135.513V10.4H138.193V19.24L142.413 14.54H145.253L141.353 18.98L145.533 25H142.673ZM146.605 25V22.12H148.805V25H146.605ZM168.162 10.8V25H165.422V18.94H158.982V25H156.222V10.8H158.982V16.54H165.422V10.8H168.162ZM175.529 25.2C174.382 25.2 173.395 24.9533 172.569 24.46C171.755 23.9533 171.129 23.2867 170.689 22.46C170.249 21.6333 170.029 20.74 170.029 19.78C170.029 18.8067 170.249 17.9067 170.689 17.08C171.142 16.2533 171.775 15.5933 172.589 15.1C173.415 14.5933 174.395 14.34 175.529 14.34C176.662 14.34 177.635 14.5933 178.449 15.1C179.275 15.5933 179.909 16.2533 180.349 17.08C180.789 17.9067 181.009 18.8067 181.009 19.78C181.009 20.74 180.789 21.6333 180.349 22.46C179.909 23.2867 179.275 23.9533 178.449 24.46C177.635 24.9533 176.662 25.2 175.529 25.2ZM172.789 19.78C172.789 20.3933 172.909 20.94 173.149 21.42C173.389 21.8867 173.715 22.2533 174.129 22.52C174.542 22.7867 175.009 22.92 175.529 22.92C176.035 22.92 176.495 22.7867 176.909 22.52C177.322 22.24 177.649 21.8667 177.889 21.4C178.142 20.92 178.269 20.3733 178.269 19.76C178.269 19.16 178.142 18.6267 177.889 18.16C177.649 17.68 177.322 17.3067 176.909 17.04C176.495 16.76 176.035 16.62 175.529 16.62C175.009 16.62 174.542 16.76 174.129 17.04C173.715 17.3067 173.389 17.68 173.149 18.16C172.909 18.6267 172.789 19.1667 172.789 19.78ZM182.718 21.08V14.52H185.398V20.5C185.398 22.1133 185.978 22.92 187.138 22.92C187.658 22.92 188.158 22.7667 188.638 22.46C189.131 22.14 189.531 21.66 189.838 21.02V14.52H192.518V22C192.518 22.2933 192.564 22.5 192.658 22.62C192.751 22.7267 192.918 22.7933 193.158 22.82V25C192.891 25.0533 192.664 25.0867 192.478 25.1C192.304 25.1133 192.144 25.12 191.998 25.12C191.518 25.12 191.124 25.0133 190.818 24.8C190.524 24.5733 190.351 24.2667 190.298 23.88L190.238 23.04C189.771 23.76 189.171 24.3 188.438 24.66C187.704 25.02 186.898 25.2 186.018 25.2C184.938 25.2 184.118 24.8533 183.558 24.16C182.998 23.4533 182.718 22.4267 182.718 21.08ZM199.041 25.2C198.148 25.2 197.294 25.0533 196.481 24.76C195.668 24.4667 194.968 24.0333 194.381 23.46L195.341 21.72C195.968 22.2267 196.581 22.6 197.181 22.84C197.781 23.08 198.368 23.2 198.941 23.2C199.461 23.2 199.874 23.1067 200.181 22.92C200.501 22.7333 200.661 22.4533 200.661 22.08C200.661 21.6933 200.468 21.4333 200.081 21.3C199.694 21.1533 199.154 20.9733 198.461 20.76C197.688 20.52 197.041 20.2733 196.521 20.02C196.001 19.7667 195.608 19.46 195.341 19.1C195.088 18.74 194.961 18.2733 194.961 17.7C194.961 16.6733 195.348 15.8533 196.121 15.24C196.894 14.6267 197.921 14.32 199.201 14.32C199.948 14.32 200.654 14.44 201.321 14.68C201.988 14.9067 202.594 15.28 203.141 15.8L202.061 17.5C201.034 16.7 200.041 16.3 199.081 16.3C198.654 16.3 198.274 16.38 197.941 16.54C197.621 16.7 197.461 16.98 197.461 17.38C197.461 17.7533 197.614 18.02 197.921 18.18C198.241 18.34 198.721 18.5133 199.361 18.7C200.188 18.9533 200.888 19.2 201.461 19.44C202.048 19.68 202.488 19.9867 202.781 20.36C203.088 20.7333 203.241 21.24 203.241 21.88C203.241 22.92 202.861 23.7333 202.101 24.32C201.341 24.9067 200.321 25.2 199.041 25.2ZM209.924 25.2C208.79 25.2 207.81 24.9533 206.984 24.46C206.17 23.9667 205.537 23.3133 205.084 22.5C204.63 21.6733 204.404 20.78 204.404 19.82C204.404 18.8333 204.624 17.9267 205.064 17.1C205.517 16.26 206.157 15.5933 206.984 15.1C207.81 14.5933 208.797 14.34 209.944 14.34C211.09 14.34 212.07 14.5933 212.884 15.1C213.697 15.5933 214.317 16.2533 214.744 17.08C215.184 17.8933 215.404 18.7733 215.404 19.72C215.404 20.0667 215.384 20.3667 215.344 20.62H207.244C207.31 21.4333 207.61 22.0733 208.144 22.54C208.69 23.0067 209.317 23.24 210.024 23.24C210.557 23.24 211.057 23.1133 211.524 22.86C212.004 22.5933 212.33 22.2467 212.504 21.82L214.804 22.46C214.417 23.26 213.797 23.92 212.944 24.44C212.09 24.9467 211.084 25.2 209.924 25.2ZM207.184 18.92H212.664C212.584 18.1333 212.284 17.5 211.764 17.02C211.257 16.5267 210.637 16.28 209.904 16.28C209.184 16.28 208.564 16.5267 208.044 17.02C207.537 17.5 207.25 18.1333 207.184 18.92Z" fill="#598D66"/>
</svg>
